#!OML:ASF F:\VICON\USERDATA\INSTALL\rory3\rory3.ASF
:FULLY-SPECIFIED
:DEGREES
1076
root 17.0848 17.831 -8.72697 356.488 -81.6182 -352.797
lowerback 10.0971 -0.940778 -4.09237
upperback 1.20591 -1.69627 0.874652
thorax -4.25903 -0.780847 3.44899
lowerneck -20.4982 -6.02403 -11.3489
upperneck 30.202 -8.93463 10.4217
head 14.9713 -3.93575 4.51191
rclavicle 3.55079e-014 5.1684e-015
rhumerus -44.1112 -18.6056 -74.2737
rradius 28.9116
rwrist 5.05966
rhand -17.8068 8.68413
rfingers 7.12502
rthumb 8.45681 -21.1265
lclavicle 3.55079e-014 5.1684e-015
lhumerus -29.4085 5.99863 77.7623
lradius 30.0947
lwrist -4.27681
lhand -21.5885 26.194
lfingers 7.12502
lthumb 4.8061 56.1195
rfemur -19.9515 -6.74769 21.2546
rtibia 39.7106
rfoot -17.9328 -9.37106
rtoes 5.91606
lfemur -3.78913 -1.99555 -22.6218
ltibia 21.0321
lfoot -11.215 13.158
ltoes -24.1883
1077
root 17.0545 17.8201 -8.74192 356.236 -81.9501 -352.663
lowerback 10.1923 -0.976468 -4.15017
upperback 1.16333 -1.75385 0.890656
thorax -4.34932 -0.805003 3.50977
lowerneck -20.4567 -5.9994 -11.559
upperneck 30.2156 -8.88365 10.5659
head 14.9822 -3.92387 4.62202
rclavicle 9.96408e-015 -9.34288e-015
rhumerus -44.5145 -18.7301 -74.2209
rradius 28.8271
rwrist 5.02406
rhand -17.0991 8.52886
rfingers 7.12502
rthumb 9.13973 -21.2531
lclavicle 9.96408e-015 -9.34288e-015
lhumerus -29.4546 5.8468 78.0939
lradius 30.1741
lwrist -4.54383
lhand -21.4662 25.9327
lfingers 7.12502
lthumb 4.92417 55.8555
rfemur -19.4231 -6.34371 21.2572
rtibia 39.091
rfoot -17.9847 -9.17043
rtoes 4.92266
lfemur -3.63492 -2.09691 -22.6123
ltibia 21.3025
lfoot -11.2635 13.7344
ltoes -24.3786
1078
root 17.0257 17.8122 -8.75778 356.555 -82.2147 -353.07
lowerback 10.2423 -1.05886 -4.06774
upperback 1.15098 -1.85651 0.890021
thorax -4.38352 -0.856107 3.47798
lowerneck -20.5124 -5.9666 -11.7275
upperneck 30.2855 -8.83164 10.7102
head 15.0381 -3.9043 4.72695
rclavicle 7.4917e-015 -2.13694e-015
rhumerus -44.8257 -18.7405 -74.3711
rradius 28.804
rwrist 5.05243
rhand -16.6981 8.23748
rfingers 7.12502
rthumb 9.52662 -21.5272
lclavicle 7.4917e-015 -2.13694e-015
lhumerus -29.4456 5.69796 78.3388
lradius 30.3784
lwrist -4.90614
lhand -18.4856 25.7661
lfingers 7.12502
lthumb 7.80165 55.6022
rfemur -18.9566 -5.93478 21.3626
rtibia 38.5193
rfoot -17.8781 -9.27866
rtoes 2.51968
lfemur -3.51103 -1.99627 -22.4644
ltibia 21.5086
lfoot -11.4587 13.9012
ltoes -23.2822
1079
root 16.993 17.8042 -8.77298 355.982 -82.5814 -352.474
lowerback 10.1292 -1.06408 -4.2118
upperback 1.12269 -1.87438 0.890063
thorax -4.34392 -0.862681 3.55858
lowerneck -20.5693 -5.94177 -11.7016
upperneck 30.3633 -8.78238 10.6325
head 15.0722 -3.89081 4.70134
rclavicle -4.26642e-014 2.23633e-015
rhumerus -45.05 -18.4374 -74.6334
rradius 28.7924
rwrist 4.84403
rhand -16.8738 8.06516
rfingers 7.12502
rthumb 9.35707 -21.7072
lclavicle -4.26642e-014 2.23633e-015
lhumerus -29.4337 5.41474 78.6554
lradius 30.7214
lwrist -4.74499
lhand -20.3257 26.0896
lfingers 7.12502
lthumb 6.0254 55.9839
rfemur -18.6279 -5.70343 21.3808
rtibia 38.0449
rfoot -18.1184 -9.26997
rtoes 2.25532
lfemur -3.46809 -1.64921 -22.4643
ltibia 21.6713
lfoot -11.4526 14.1086
ltoes -24.7925
1080
root 16.9569 17.8015 -8.79031 356.263 -83.0797 -352.684
lowerback 9.86861 -1.01848 -4.2626
upperback 1.13361 -1.8075 0.882539
thorax -4.19197 -0.832869 3.56198
lowerneck -20.6953 -5.9395 -11.4896
upperneck 30.4327 -8.79247 10.4629
head 15.1106 -3.88925 4.59001
rclavicle -2.68359e-015 4.22417e-015
rhumerus -45.2316 -18.4514 -74.881
rradius 28.7824
rwrist 4.79319
rhand -17.0718 7.86251
rfingers 7.12502
rthumb 9.16602 -21.9183
lclavicle -2.68359e-015 4.22417e-015
lhumerus -29.2732 5.05003 78.895
lradius 30.9924
lwrist -4.35584
lhand -21.4535 26.1002
lfingers 7.12502
lthumb 4.93651 56.0227
rfemur -18.3722 -5.38555 21.5716
rtibia 37.6759
rfoot -18.8249 -8.90431
rtoes 6.47436
lfemur -3.46664 -1.46271 -22.3632
ltibia 21.8365
lfoot -11.3762 14.5717
ltoes -26.2583
1081
root 16.9268 17.8025 -8.81033 357.368 -83.4367 -353.754
lowerback 9.7399 -1.01691 -4.14498
upperback 1.13442 -1.7889 0.835233
thorax -4.12617 -0.827506 3.43956
lowerneck -20.8661 -5.968 -11.2178
upperneck 30.5535 -8.87076 10.2805
head 15.1889 -3.91078 4.45008
rclavicle -9.50284e-015 1.02685e-014
rhumerus -45.4808 -18.8833 -75.0001
rradius 28.7121
rwrist 5.40514
rhand -17.1522 7.92158
rfingers 7.12502
rthumb 9.08847 -21.8626
lclavicle -9.50284e-015 1.02685e-014
lhumerus -29.1619 4.65503 79.0486
lradius 31.2627
lwrist -4.43507
lhand -21.3983 25.9499
lfingers 7.12502
lthumb 4.98976 55.8711
rfemur -18.1538 -5.09738 21.8618
rtibia 37.4365
rfoot -19.1243 -8.57272
rtoes 8.51005
lfemur -3.45204 -1.56871 -22.1363
ltibia 21.963
lfoot -11.3891 14.9066
ltoes -25.9599
